<?xml version="1.0" encoding="utf-8"?>
<!-- Generator: Adobe Illustrator 25.4.1, SVG Export Plug-In . SVG Version: 6.00 Build 0)  -->
<svg version="1.1" id="Layer_1" xmlns="http://www.w3.org/2000/svg" xmlns:xlink="http://www.w3.org/1999/xlink" x="0px" y="0px"
	 viewBox="0 0 643 627.2" style="enable-background:new 0 0 643 627.2;" xml:space="preserve">
<style type="text/css">
	.st0{fill-rule:evenodd;clip-rule:evenodd;fill:#FFFFFF;}
	.st1{fill:#FFFFFF;}
</style>
<g>
	<path class="st0" d="M321.5,0C144,0,0,143.9,0,321.5c0,142.1,92.1,262.6,219.9,305.1c16.1,3,22-7,22-15.5c0-7.7-0.3-33-0.4-59.9
		c-89.4,19.5-108.3-37.9-108.3-37.9c-14.6-37.2-35.7-47-35.7-47c-29.2-20,2.2-19.5,2.2-19.5c32.3,2.3,49.3,33.1,49.3,33.1
		c28.7,49.1,75.2,34.9,93.6,26.7c2.9-20.8,11.2-35,20.4-43c-71.4-8.1-146.5-35.7-146.5-158.9c0-35.1,12.6-63.8,33.1-86.3
		c-3.3-8.1-14.3-40.8,3.1-85.1c0,0,27-8.6,88.4,33c25.6-7.1,53.2-10.7,80.5-10.8c27.3,0.1,54.8,3.7,80.5,10.8
		c61.4-41.6,88.3-33,88.3-33c17.5,44.3,6.5,77,3.2,85.1c20.6,22.5,33.1,51.2,33.1,86.3c0,123.5-75.2,150.7-146.8,158.6
		c11.5,10,21.8,29.5,21.8,59.5c0,43-0.4,77.6-0.4,88.2c0,8.6,5.8,18.6,22.1,15.4C551,584,643,463.5,643,321.5
		C643,143.9,499.1,0,321.5,0z"/>
	<path class="st1" d="M121.8,461.6c-0.7,1.6-3.2,2.1-5.5,1c-2.3-1-3.6-3.2-2.9-4.8c0.7-1.6,3.2-2.1,5.5-1
		C121.2,457.8,122.6,460,121.8,461.6L121.8,461.6z"/>
	<path class="st1" d="M134.8,476.1c-1.5,1.4-4.5,0.8-6.6-1.5c-2.1-2.2-2.5-5.2-0.9-6.7c1.6-1.4,4.5-0.8,6.6,1.5
		C136,471.7,136.4,474.7,134.8,476.1L134.8,476.1z"/>
	<path class="st1" d="M147.5,494.7c-2,1.4-5.2,0.1-7.2-2.8s-2-6.3,0-7.7c2-1.4,5.2-0.1,7.2,2.7C149.5,489.8,149.5,493.3,147.5,494.7
		L147.5,494.7z"/>
	<path class="st1" d="M164.8,512.6c-1.8,1.9-5.5,1.4-8.3-1.2c-2.8-2.6-3.6-6.3-1.8-8.2c1.8-1.9,5.6-1.4,8.3,1.2
		C165.9,506.9,166.7,510.6,164.8,512.6L164.8,512.6z"/>
	<path class="st1" d="M188.8,522.9c-0.8,2.5-4.4,3.7-8,2.6c-3.6-1.1-6-4.1-5.3-6.6c0.8-2.5,4.4-3.7,8.1-2.6
		C187.2,517.5,189.6,520.4,188.8,522.9L188.8,522.9z"/>
	<path class="st1" d="M215.1,524.9c0.1,2.7-3,4.9-6.8,4.9c-3.8,0.1-7-2.1-7-4.7c0-2.7,3-4.9,6.9-4.9
		C212,520.1,215.1,522.2,215.1,524.9L215.1,524.9z"/>
	<path class="st1" d="M239.6,520.7c0.5,2.6-2.2,5.2-6,5.9c-3.7,0.7-7.2-0.9-7.7-3.5c-0.5-2.7,2.2-5.3,6-6
		C235.7,516.5,239.1,518.1,239.6,520.7L239.6,520.7z"/>
</g>
</svg>
