<?xml version="1.0" encoding="utf-8"?>
<!-- Generator: Adobe Illustrator 25.4.1, SVG Export Plug-In . SVG Version: 6.00 Build 0)  -->
<svg version="1.1" id="Layer_1" xmlns="http://www.w3.org/2000/svg" xmlns:xlink="http://www.w3.org/1999/xlink" x="0px" y="0px"
	 viewBox="0 0 551.5 558" style="enable-background:new 0 0 551.5 558;" xml:space="preserve">
<style type="text/css">
	.st0{fill:#FFFFFF;}
</style>
<path class="st0" d="M551.5,502.2c0,30.8-24.9,55.8-55.6,55.8H55.6C24.9,558,0,533,0,502.2V55.8C0,25,24.9,0,55.6,0h440.3
	c30.7,0,55.6,25,55.6,55.8V502.2z"/>
<g>
	<path d="M179.4,136.4c0,20.5-15.1,37.1-40,37.1c-23.4,0-38.6-16.6-38.6-37.1c0-21,15.6-37.1,39.5-37.1
		C164.3,99.3,178.9,115.5,179.4,136.4z M102.8,441.5V202.8H177v238.7H102.8z"/>
	<path d="M221.4,279c0-29.8-1-54.7-1.9-76.1h64.4l3.4,33.2h1.5c9.8-15.6,33.7-38.6,73.7-38.6c48.8,0,85.4,32.7,85.4,103v141.1h-74.2
		V309.2c0-30.8-10.7-51.7-37.6-51.7c-20.5,0-32.7,14.2-38.1,27.8c-2,4.9-2.4,11.7-2.4,18.6v137.7h-74.2L221.4,279L221.4,279z"/>
</g>
</svg>
